<?xml version="1.0" standalone="no"?>
<!DOCTYPE svg PUBLIC "-//W3C//DTD SVG 1.1//EN" "http://www.w3.org/Graphics/SVG/1.1/DTD/svg11.dtd">
<svg version="1.1" xmlns="http://www.w3.org/2000/svg" xmlns:xlink="http://www.w3.org/1999/xlink" x="0px" y="0px"
	 width="512px" height="512px" viewBox="0 0 512 512" enable-background="new 0 0 512 512" xml:space="preserve">

  <defs>
    <linearGradient id="grad1" x1="50%" y1="0%" x2="50%" y2="80%">
      <stop offset="0%"   style="stop-color:#fff;stop-opacity:1" />
      <stop offset="100%" style="stop-color:#000;stop-opacity:1" />
    </linearGradient>

    <linearGradient id="grad2"  x1="50%" y1="10%" x2="50%" y2="100%">
      <stop offset="0%"     style="stop-color:#ff2e56;stop-opacity:1" />
      <stop offset="100%"   style="stop-color:#ff0060;stop-opacity:1" />
    </linearGradient>
    
    <filter id="f2" x="0" y="0" width="200%" height="200%">
      <feOffset result="offOut" in="SourceAlpha" dx="20" dy="20" />
      <feGaussianBlur result="blurOut" in="offOut" stdDeviation="20" />
      <feBlend in="SourceGraphic" in2="blurOut" mode="normal" />
    </filter>
  </defs>


<!--
   ***************************************************************************
-->
<path fill="url(#grad2)" fill-rule="evenodd" stroke="none" 
      stroke-width="0.25" d="M0 512L0 0L512 0L512 512L0 512Z" />

<path id="shield" 
  fill="#fff" fill-opacity="0.9" stroke="#fff" stroke-opacity="0.8" stroke-width="6"
   
  
  d="M256,102.433c46.974,34.162,100.779,47.517,143.455,52.245C388.319,257.588,332.197,353.065,256,412.763
	c-76.084-59.608-132.305-155.036-143.455-258.085C155.221,149.95,209.026,136.594,256,102.433 M256,50
	c-51.418,51.417-125.167,67-185.5,67c0,147.334,83.666,278,185.5,345c101.834-67,185.5-197.666,185.5-345
	C381.167,117,307.417,101.417,256,50z M365.302,179.834c-34.612-6.643-73.071-18.999-109.302-41.314
	c-36.23,22.315-74.689,34.671-109.302,41.314C161.676,255.86,202.592,324.588,256,373.434
	C309.412,324.585,350.324,255.856,365.302,179.834z"/>
	
		
<path id="key" 
  transform="translate(148, 245) scale(0.3) rotate(-45)" fill="url(#grad2)" fill-opacity="0.9" fill-rule="evenodd" stroke="none" 
  
  d="M286.53,325.487l-45.314,45.313h-43.874l0.001,43.873l-45.745-0.002v41.345H50v-70.458l145.737-145.737
	C212.174,278.996,244.714,310.706,286.53,325.487z M425.646,92.338c48.473,48.474,48.471,127.064-0.001,175.536
	c-48.475,48.476-127.062,48.476-175.537,0.001c-48.473-48.472-48.475-127.062,0-175.537
	C298.58,43.865,377.173,43.865,425.646,92.338z M400.732,117.165c-12.024-12.021-31.517-12.022-43.538,0
	c-12.022,12.023-12.022,31.516,0,43.538c12.021,12.022,31.513,12.021,43.536-0.001C412.754,148.679,412.752,129.187,400.732,117.165
	z"/>

</svg>

