<?xml version="1.0" encoding="iso-8859-1"?>
<!-- Generator: Adobe Illustrator 16.0.0, SVG Export Plug-In . SVG Version: 6.00 Build 0)  -->
<!DOCTYPE svg PUBLIC "-//W3C//DTD SVG 1.1//EN" "http://www.w3.org/Graphics/SVG/1.1/DTD/svg11.dtd">
<svg version="1.1" id="Capa_1" 
   xmlns="http://www.w3.org/2000/svg" xmlns:xlink="http://www.w3.org/1999/xlink" x="0px" y="0px"
	 width="512px" 
	 height="512px" 
	 viewBox="0 0 512 512" 
	 style="enable-background:new 0 0 380.719 380.719;"
	 xml:space="preserve">
	 
	<defs>
    <linearGradient id="grad1" x1="50%" y1="0%" x2="50%" y2="100%">
      <stop offset="0%"   style="stop-color:#ffffff;stop-opacity:1" />
      <stop offset="100%" style="stop-color:#e8e8e0;stop-opacity:1" />
    </linearGradient>

    <linearGradient id="grad2"  x1="50%" y1="10%" x2="50%" y2="100%">
      <stop offset="0%"   style="stop-color:#FFD698;stop-opacity:1" />
      <stop offset="100%" style="stop-color:#FF6200;stop-opacity:1" />
    </linearGradient>
  </defs>

<!--
   ***************************************************************************
-->
<g>
  <path fill="url(#grad2)" fill-rule="evenodd" stroke="none" 
      stroke-width="0.25" d="M0 512L0 0L512 0L512 512L0 512Z" />

	<path 
	  transform="translate(34,20) scale(1.2)"
	  fill="#fff" fill-rule="nonzero"
	  stroke="#fff" stroke-width="8" stroke-opacity="0.6" stroke-linecap="round"
	  d="M315.204,32.786c-42.129-49.124-113.851-10.811-124.018-4.996C158.503,5.47,112.842-14.194,76.081,13.835
		C49.654,33.953,34.451,59.927,30.843,91.013c-5.426,46.829,17.823,92.293,29.924,106.968c6.141,7.436,8.267,43.639,9.83,70.084
		c3.317,56.28,6.187,104.904,34.966,111.004c7.349,1.58,14.384,0.279,20.356-3.694c15.499-10.341,20.379-36.239,26.02-66.227
		c7.256-38.597,13.919-68.027,31.121-66.831c5.188,0.36,7.378,2.254,8.696,3.857c8.737,10.585,4.95,42.037,2.167,65.007
		c-4.008,33.334-7.482,62.125,14.46,68.526c1.998,0.559,4.415,1.012,7.191,1.012c4.427,0,9.726-1.127,15.534-4.637
		c33.706-20.285,60.22-107.785,70.468-155.062c26.815-20.855,44.313-51.354,48.252-84.328
		C352.849,111.252,349.306,72.585,315.204,32.786z M326.138,133.868c-3.322,27.902-18.74,53.644-42.28,70.63
		c-2.429,1.754-4.113,4.346-4.718,7.273c-13.953,67.713-41.014,132.267-60.335,143.885c-0.86,0.512-1.952,1.07-2.894,1.197
		c-2.719-6.297,0.035-29.012,1.696-42.838c3.835-31.742,7.785-64.564-7.459-83.027c-6.111-7.424-14.901-11.734-25.41-12.467
		c-1.068-0.081-2.126-0.115-3.166-0.115c-36.843,0-45.83,47.764-53.086,86.338c-3.654,19.414-8.661,46.021-15.801,50.785
		c-0.354,0.244-0.761,0.523-2.173,0.209c-10.985-2.312-14.576-63.113-16.109-89.068c-2.573-43.641-4.688-71.049-15.244-83.841
		c-8.174-9.922-29.209-49.472-24.626-89.057c2.83-24.411,14.93-44.923,35.989-60.975c46.556-35.513,124.819,46.114,125.609,46.951
		c4.531,4.77,12.084,4.985,16.859,0.465c4.787-4.525,4.996-12.066,0.477-16.858c-1.069-1.133-8.947-9.365-21.146-19.549
		c19.09-8.76,60.975-23.26,84.77,4.485C319.632,74.607,329.67,104.194,326.138,133.868z"/>
		
		<path 
	  transform="translate(34,20) scale(1.2)"
	  fill="url(#grad1)" fill-opacity="0.6"
	  stroke="#fff" stroke-width="4" stroke-opacity="0.8" stroke-linecap="round"
	  d="M326.138,133.868c-3.322,27.902-18.74,53.644-42.28,70.63
		c-2.429,1.754-4.113,4.346-4.718,7.273c-13.953,67.713-41.014,132.267-60.335,143.885c-0.86,0.512-1.952,1.07-2.894,1.197
		c-2.719-6.297,0.035-29.012,1.696-42.838c3.835-31.742,7.785-64.564-7.459-83.027c-6.111-7.424-14.901-11.734-25.41-12.467
		c-1.068-0.081-2.126-0.115-3.166-0.115c-36.843,0-45.83,47.764-53.086,86.338c-3.654,19.414-8.661,46.021-15.801,50.785
		c-0.354,0.244-0.761,0.523-2.173,0.209c-10.985-2.312-14.576-63.113-16.109-89.068c-2.573-43.641-4.688-71.049-15.244-83.841
		c-8.174-9.922-29.209-49.472-24.626-89.057c2.83-24.411,14.93-44.923,35.989-60.975c46.556-35.513,124.819,46.114,125.609,46.951
		c4.531,4.77,12.084,4.985,16.859,0.465c4.787-4.525,4.996-12.066,0.477-16.858c-1.069-1.133-8.947-9.365-21.146-19.549
		c19.09-8.76,60.975-23.26,84.77,4.485C319.632,74.607,329.67,104.194,326.138,133.868z"/>
		
		<!--<circle cx="270" cy="200" r="60" stroke="#FF6200" stroke-opacity="0.6" stroke-width="20" fill="white" fill-opacity="0.8" /> -->
</g>
</svg>
