<?xml version="1.0" encoding="utf-8"?>

<!-- The icon can be used freely in both personal and commercial projects with no attribution required, but always appreciated. 
You may NOT sub-license, resell, rent, redistribute or otherwise transfer the icon without express written permission from iconmonstr.com -->

<!DOCTYPE svg PUBLIC "-//W3C//DTD SVG 1.1//EN" "http://www.w3.org/Graphics/SVG/1.1/DTD/svg11.dtd">
<svg version="1.1" xmlns="http://www.w3.org/2000/svg" xmlns:xlink="http://www.w3.org/1999/xlink" x="0px" y="0px"
	 width="512px" height="512px" viewBox="0 0 512 512" enable-background="new 0 0 512 512" xml:space="preserve">
<path id="sms-icon" d="M256,65.353c-108.81,0-206,73.248-206,173.431c0,35.534,12.684,70.421,35.135,97.493
	c0.948,31.725-17.552,77.225-34.217,110.371c44.665-8.146,108.165-26.146,136.963-43.949C346.438,441.636,462,343.677,462,238.783
	C462,138.051,364.131,65.353,256,65.353z M182.789,282.752c-6.659,5.291-15.961,7.934-27.907,7.934
	c-10.216,0-19.244-1.959-27.087-5.882l4.378-17.374c7.888,4.014,15.913,6.02,24.077,6.02c4.696,0,8.355-0.89,10.978-2.667
	c5.062-3.435,5.36-10.364,0.376-14.296c-2.372-1.869-6.476-3.785-12.312-5.746c-17.602-5.836-26.403-15.002-26.403-27.497
	c0-8.07,3.237-14.716,9.713-19.939c6.475-5.22,15.093-7.831,25.855-7.831c9.393,0,17.601,1.597,24.624,4.788l-4.789,16.826
	c-6.429-3.009-13.132-4.514-20.109-4.514c-4.287,0-7.638,0.821-10.055,2.462c-4.799,3.259-4.72,9.134-0.581,12.62
	c2.029,1.71,6.896,3.933,14.603,6.668c8.526,3.01,14.763,6.737,18.708,11.184c3.943,4.446,5.917,9.977,5.917,16.587
	C192.774,270.577,189.445,277.463,182.789,282.752z M289.219,289.181c-1.461-36.57-2.189-61.376-2.189-74.418h-0.41
	c-2.235,9.805-9.714,34.109-22.436,72.915H247.63c-7.616-26.768-18.878-72.915-18.878-72.915h-0.273l-3.284,74.418h-19.699
	l5.882-92.202h28.728l16.245,63.611l19.699-63.611h29.035l4.926,92.202H289.219z M378.446,283.144
	c-6.715,5.336-16.209,8.042-28.218,8.042c-9.713,0-18.906-1.732-27.67-6.114l4.629-18.371c7.723,3.929,15.588,6.249,24.41,6.249
	c4.571,0,8.17-0.868,10.696-2.581c4.837-3.281,5.014-9.809,0.348-13.489c-2.314-1.825-6.406-3.73-12.162-5.664
	c-17.745-5.884-26.743-15.295-26.743-27.971c0-8.19,3.33-15.03,9.899-20.328c6.536-5.27,15.341-7.942,26.168-7.942
	c9.42,0,17.775,1.626,24.832,4.833l0.392,0.178l-5.066,17.805c-6.502-3.042-12.998-4.715-20.43-4.715
	c-4.165,0-7.453,0.799-9.773,2.375c-4.518,3.067-4.435,8.544-0.541,11.824c1.974,1.663,6.835,3.877,14.448,6.58
	c8.57,3.026,14.935,6.836,18.914,11.323c4.01,4.521,6.043,10.213,6.043,16.918C388.622,270.697,385.198,277.779,378.446,283.144z"/>
</svg>
