<?xml version="1.0" encoding="utf-8"?>


<!-- The icon can be used freely in both personal and commercial projects with no attribution required, but always appreciated. 
You may NOT sub-license, resell, rent, redistribute or otherwise transfer the icon without express written permission from iconmonstr.com -->


<!DOCTYPE svg PUBLIC "-//W3C//DTD SVG 1.1//EN" "http://www.w3.org/Graphics/SVG/1.1/DTD/svg11.dtd">

<svg version="1.1" xmlns="http://www.w3.org/2000/svg" xmlns:xlink="http://www.w3.org/1999/xlink" x="0px" y="0px"

	 width="512px" height="512px" viewBox="0 0 512 512" enable-background="new 0 0 512 512" xml:space="preserve">

<path id="delicious-circle-icon" d="M256.417,50c-113.771,0-206,92.229-206,206s92.229,206,206,206s206-92.229,206-206

	S370.188,50,256.417,50z M373.797,373.38C342.443,404.732,300.758,422,256.418,422V256h-166l-0.001,0.001c0,0,0-0.001,0-0.001

	c0-44.34,17.267-86.026,48.62-117.38C170.391,107.267,212.077,90,256.417,90h0.001v166h165.999

	C422.417,300.34,405.15,342.026,373.797,373.38z"/>

</svg>

