<?xml version="1.0" encoding="utf-8"?>

<!-- License Agreement at http://iconmonstr.com/license/ -->

<!DOCTYPE svg PUBLIC "-//W3C//DTD SVG 1.1//EN" "http://www.w3.org/Graphics/SVG/1.1/DTD/svg11.dtd">
<svg version="1.1" xmlns="http://www.w3.org/2000/svg" xmlns:xlink="http://www.w3.org/1999/xlink" x="0px" y="0px"
	 width="512px" height="512px" viewBox="0 0 512 512" enable-background="new 0 0 512 512" xml:space="preserve">
<path id="bitcoin-3-icon" d="M303.676,288.54c0.009,21.928-35.308,21.322-56.823,21.322v-42.83
	C269.305,266.588,303.678,265.976,303.676,288.54z M293.368,219.691c-0.004-19.853-26.271-19.264-46.516-19.264v38.496
	C266.388,238.924,293.362,238.786,293.368,219.691z M462,256c0,113.771-92.229,206-206,206c-113.771,0-206-92.229-206-206
	c0-113.771,92.229-206,206-206C369.771,50,462,142.229,462,256z M325.791,246.124c21.38-15.314,30.066-69.421-39.068-76.551
	l-0.001-33.691h-28l0.002,32.704h-11.871v-32.704h-27.979l-0.01,32.704h-44.683l0.007,30.29l20.762-0.012
	c6.792,0.002,8.082,3.2,8.082,7.379v95.678c0,5.319-2.575,7.923-8.325,7.923h-15.673l-5.368,32.43h45.204l0.009,33.845h27.975
	v-33.845h11.871l-0.01,33.845h28.001v-33.954C371.416,336.352,366.889,260.333,325.791,246.124z"/>
</svg>
