<?xml version="1.0" encoding="utf-8"?>


<!-- The icon can be used freely in both personal and commercial projects with no attribution required, but always appreciated. 
You may NOT sub-license, resell, rent, redistribute or otherwise transfer the icon without express written permission from iconmonstr.com -->


<!DOCTYPE svg PUBLIC "-//W3C//DTD SVG 1.1//EN" "http://www.w3.org/Graphics/SVG/1.1/DTD/svg11.dtd">

<svg version="1.1" xmlns="http://www.w3.org/2000/svg" xmlns:xlink="http://www.w3.org/1999/xlink" x="0px" y="0px"

	 width="512px" height="512px" viewBox="0 0 512 512" enable-background="new 0 0 512 512" xml:space="preserve">

<path id="email-12-icon" d="M256,50C142.229,50,50,142.229,50,256s92.229,206,206,206s206-92.229,206-206S369.771,50,256,50z

	 M358.042,306.051c-15.183,15.183-35.037,23.941-54.598,23.941c-11.388,0-20.73-4.38-25.109-11.388

	c-1.46-2.334-1.752-3.795-2.628-9.051c-11.095,12.848-22.773,18.395-39.123,18.395c-28.905,0-47.299-21.605-47.299-54.891

	c0-49.342,32.408-90.217,71.238-90.217c16.352,0,24.527,4.086,32.409,16.351l2.92-10.22h34.453

	c-1.752,5.84-7.008,23.649-8.468,30.072l-17.519,64.818c-0.875,3.21-1.167,6.131-1.167,8.759c0,4.671,2.627,7.298,7.591,7.298

	c5.547,0,12.555-2.92,18.394-7.591c14.307-11.095,23.649-32.701,23.649-55.183c0-26.86-12.555-50.219-33.576-63.355

	c-13.138-7.885-31.531-12.264-52.262-12.264c-61.605,0-104.816,40.876-104.816,98.686c0,56.059,38.831,92.846,97.517,92.846

	c15.183,0,31.24-2.336,44.671-6.424c11.388-3.503,18.686-7.008,32.701-15.474l17.811,25.692

	c-15.768,9.344-22.774,12.848-36.496,16.934c-19.854,6.133-40.876,9.345-61.897,9.345c-41.167,0-73.284-11.68-96.35-34.745

	c-21.897-21.605-33.868-52.555-33.868-86.423c0-36.204,12.263-67.444,35.619-91.095c26.861-26.859,62.19-40,107.444-40

	c68.029,0,116.496,43.797,116.496,104.818C385.779,263.131,375.852,288.241,358.042,306.051z M281.837,230.722

	c0,13.432-4.67,31.241-11.677,44.965c-7.592,14.891-17.811,23.356-28.613,23.356c-11.096,0-16.935-8.175-16.935-23.649

	c0-13.431,4.672-30.656,11.68-43.795c7.299-13.722,17.518-21.021,28.612-21.021C275.124,210.577,281.837,218.753,281.837,230.722z"

	/>

</svg>

