<?xml version="1.0" encoding="utf-8"?>

<!-- The icon can be used freely in both personal and commercial projects with no attribution required, but always appreciated. 
You may NOT sub-license, resell, rent, redistribute or otherwise transfer the icon without express written permission from iconmonstr.com -->

<!DOCTYPE svg PUBLIC "-//W3C//DTD SVG 1.1//EN" "http://www.w3.org/Graphics/SVG/1.1/DTD/svg11.dtd">
<svg version="1.1" xmlns="http://www.w3.org/2000/svg" xmlns:xlink="http://www.w3.org/1999/xlink" x="0px" y="0px"
	 width="512px" height="512px" viewBox="0 0 512 512" enable-background="new 0 0 512 512" xml:space="preserve">
<path id="paypal-4-icon" d="M252.707,241.953h-17.871l13.305-59.947h20.086c17.412,0,32.395,4.82,32.395,22.984
	C300.621,231.748,278.68,241.953,252.707,241.953z M462,256c0,113.771-92.229,206-206,206c-113.771,0-206-92.229-206-206
	c0-113.771,92.229-206,206-206C369.771,50,462,142.229,462,256z M166.52,344.777h45.49l14.473-63.354h18.889
	c64.789,0,102.977-34.369,102.977-77.736c0-33.861-22-59.047-61.994-59.047h-75.404L166.52,344.777z M361.434,195.266
	c8.594,67.814-55.57,102.643-122.609,101.709l-14.639,62.279h-31.502l-3.559,16.106h48.67l14.053-62.185
	C349.848,310.215,387.553,238.721,361.434,195.266z"/>
</svg>
