<?xml version="1.0" encoding="utf-8"?>


<!-- The icon can be used freely in both personal and commercial projects with no attribution required, but always appreciated. 
You may NOT sub-license, resell, rent, redistribute or otherwise transfer the icon without express written permission from iconmonstr.com -->


<!DOCTYPE svg PUBLIC "-//W3C//DTD SVG 1.1//EN" "http://www.w3.org/Graphics/SVG/1.1/DTD/svg11.dtd">

<svg version="1.1" xmlns="http://www.w3.org/2000/svg" xmlns:xlink="http://www.w3.org/1999/xlink" x="0px" y="0px"

	 width="512px" height="512px" viewBox="0 0 512 512" enable-background="new 0 0 512 512" xml:space="preserve">

<path id="pinterest-circle-icon" d="M256.417,50c-113.771,0-206,92.229-206,206s92.229,206,206,206s206-92.229,206-206

	S370.188,50,256.417,50z M283.441,323.808c-16.098,0-31.237-8.703-36.416-18.584c0,0-8.661,34.349-10.489,40.981

	c-6.454,23.425-25.445,46.869-26.917,48.789c-1.028,1.336-3.302,0.915-3.54-0.854c-0.412-2.984-5.251-32.544,0.446-56.656

	c2.859-12.107,19.176-81.24,19.176-81.24s-4.756-9.52-4.756-23.592c0-22.095,12.809-38.589,28.753-38.589

	c13.557,0,20.108,10.179,20.108,22.382c0,13.633-8.681,34.016-13.163,52.903c-3.742,15.82,7.933,28.72,23.53,28.72

	c28.242,0,47.267-36.283,47.267-79.27c0-32.671-21.997-57.135-62.032-57.135c-45.215,0-73.404,33.728-73.404,71.406

	c0,12.986,3.837,22.154,9.841,29.237c2.756,3.26,3.143,4.57,2.144,8.311c-0.727,2.746-2.356,9.348-3.046,11.965

	c-0.989,3.78-4.049,5.127-7.463,3.731c-20.822-8.503-30.53-31.315-30.53-56.958c0-42.349,35.717-93.135,106.55-93.135

	c56.929,0,94.387,41.185,94.387,85.41C363.886,280.115,331.369,323.808,283.441,323.808z"/>

</svg>

