<?xml version="1.0" encoding="utf-8"?>


<!-- The icon can be used freely in both personal and commercial projects with no attribution required, but always appreciated. 
You may NOT sub-license, resell, rent, redistribute or otherwise transfer the icon without express written permission from iconmonstr.com -->


<!DOCTYPE svg PUBLIC "-//W3C//DTD SVG 1.1//EN" "http://www.w3.org/Graphics/SVG/1.1/DTD/svg11.dtd">

<svg version="1.1" xmlns="http://www.w3.org/2000/svg" xmlns:xlink="http://www.w3.org/1999/xlink" x="0px" y="0px"

	 width="512px" height="512px" viewBox="0 0 512 512" enable-background="new 0 0 512 512" xml:space="preserve">

<path id="skype-circle-icon" d="M327.666,286.505c0,32.823-26.273,54.336-65.495,54.336c-34.492,0-69.162-15.638-68.986-42.56

	c0.053-8.121,6.119-15.578,14.187-15.578c20.308,0,20.121,30.182,52.46,30.182c22.693,0,30.435-12.379,30.435-21.002

	c0-31.155-98.064-12.055-98.064-70.655c0-31.711,26.055-53.589,67.004-51.184c39.057,2.294,61.938,19.472,64.156,35.519

	c1.094,10.479-5.88,18.632-17.98,18.632c-17.664,0-19.473-23.552-49.886-23.552c-13.725,0-25.313,5.702-25.313,18.081

	C230.182,244.594,327.666,229.573,327.666,286.505z M462,256c0,113.771-92.229,206-206,206S50,369.771,50,256S142.229,50,256,50

	S462,142.229,462,256z M387.779,314.512c0-13.688-3.903-26.46-10.638-37.285c1.208-6.867,1.876-13.918,1.876-21.132

	c0-66.888-54.227-121.112-121.115-121.112c-7.622,0-15.069,0.736-22.302,2.084c-10.696-6.513-23.257-10.264-36.697-10.264

	c-39.04,0-70.684,31.645-70.684,70.684c0,13.606,3.854,26.307,10.512,37.09c-1.254,6.989-1.943,14.169-1.943,21.519

	c0,66.892,54.225,121.117,121.114,121.117c7.764,0,15.343-0.76,22.697-2.156c10.655,6.438,23.141,10.144,36.497,10.144

	C356.133,385.198,387.779,353.551,387.779,314.512z"/>

</svg>

