<?xml version="1.0" encoding="utf-8"?>


<!-- The icon can be used freely in both personal and commercial projects with no attribution required, but always appreciated. 
You may NOT sub-license, resell, rent, redistribute or otherwise transfer the icon without express written permission from iconmonstr.com -->


<!DOCTYPE svg PUBLIC "-//W3C//DTD SVG 1.1//EN" "http://www.w3.org/Graphics/SVG/1.1/DTD/svg11.dtd">

<svg version="1.1" xmlns="http://www.w3.org/2000/svg" xmlns:xlink="http://www.w3.org/1999/xlink" x="0px" y="0px"

	 width="512px" height="512px" viewBox="0 0 512 512" enable-background="new 0 0 512 512" xml:space="preserve">

<path id="flickr-circle-icon" d="M256.417,50c-113.771,0-206,92.229-206,206s92.229,206,206,206s206-92.229,206-206

	S370.188,50,256.417,50z M317.621,324.576c-26.734,0-49.893-15.298-61.205-37.615c-11.311,22.317-34.469,37.615-61.203,37.615

	c-37.873,0-68.576-30.703-68.576-68.575c0-37.875,30.703-68.577,68.576-68.577c26.734,0,49.893,15.298,61.203,37.615

	c11.312-22.317,34.471-37.615,61.205-37.615c37.873,0,68.576,30.702,68.576,68.577C386.197,293.873,355.494,324.576,317.621,324.576

	z M367.91,256.001c0,27.729-22.562,50.288-50.289,50.288c-27.73,0-50.291-22.56-50.291-50.288c0-27.729,22.561-50.289,50.291-50.289

	C345.348,205.712,367.91,228.272,367.91,256.001z"/>

</svg>

