<?xml version="1.0" encoding="utf-8"?>


<!-- The icon can be used freely in both personal and commercial projects with no attribution required, but always appreciated. 
You may NOT sub-license, resell, rent, redistribute or otherwise transfer the icon without express written permission from iconmonstr.com -->


<!DOCTYPE svg PUBLIC "-//W3C//DTD SVG 1.1//EN" "http://www.w3.org/Graphics/SVG/1.1/DTD/svg11.dtd">

<svg version="1.1" xmlns="http://www.w3.org/2000/svg" xmlns:xlink="http://www.w3.org/1999/xlink" x="0px" y="0px"

	 width="512px" height="512px" viewBox="0 0 512 512" enable-background="new 0 0 512 512" xml:space="preserve">

<path id="wordpress-circle-icon" d="M256.417,50c-113.771,0-206,92.229-206,206s92.229,206,206,206s206-92.229,206-206

	S370.188,50,256.417,50z M374.377,237.728c-18.29,53.523-39.613,113.292-43.381,124.872c-3.769,11.581-17.003,9.283-20.2,0.426

	c-1.772-4.912-21.109-57.896-37.98-104.105c-11.112,32.225-32.78,95.119-35.566,103.68c-3.768,11.581-17.004,9.283-20.198,0.426

	c-3.195-8.855-63.474-173.916-63.474-173.916c-12.628-1.178-10.534-0.905-13.658-1.272c-3.125-0.368-4.504-3.585-3.953-6.48

	c0.766-3.461,3.953-3.708,6.157-3.584c1.1,0.06,16.537,1.255,32.077,1.256c15.64,0.001,31.382-1.188,32.719-1.256

	c2.665-0.138,5.469,0.413,5.975,4.228c0.505,3.814-2.527,5.606-4.352,5.881c-1.823,0.274-14.572,1.228-14.572,1.228l45.301,134.89

	l27.499-81.638c-10.861-29.743-19.447-53.251-19.447-53.251c-12.627-1.178-10.533-0.905-13.658-1.272

	c-3.124-0.368-4.503-3.585-3.952-6.48c0.767-3.461,3.952-3.708,6.159-3.584c1.098,0.06,16.536,1.255,32.076,1.256

	c15.638,0.001,31.381-1.188,32.72-1.256c2.664-0.138,5.468,0.413,5.973,4.228c0.507,3.814-2.526,5.606-4.351,5.881

	c-1.823,0.274-14.573,1.228-14.573,1.228l45.153,134.305l17.933-59.516c0,0,12.178-32.175-8.397-60.42

	c-20.574-28.246-4.35-44.08,3.254-46.555C375.543,147.203,390.553,188.954,374.377,237.728z"/>

</svg>

