<?xml version="1.0" encoding="utf-8"?>

<!-- The icon can be used freely in both personal and commercial projects with no attribution required, but always appreciated. 
You may NOT sub-license, resell, rent, redistribute or otherwise transfer the icon without express written permission from iconmonstr.com -->

<!DOCTYPE svg PUBLIC "-//W3C//DTD SVG 1.1//EN" "http://www.w3.org/Graphics/SVG/1.1/DTD/svg11.dtd">
<svg version="1.1" xmlns="http://www.w3.org/2000/svg" xmlns:xlink="http://www.w3.org/1999/xlink" x="0px" y="0px"
	 width="512px" height="512px" viewBox="0 0 512 512" enable-background="new 0 0 512 512" xml:space="preserve">
<path id="coin-icon" d="M256,50C142.229,50,50,142.229,50,256c0,113.771,92.229,206,206,206c113.771,0,206-92.229,206-206
	C462,142.229,369.771,50,256,50z M274.885,352.508v24.019h-34.363v-21.482c-16.493-1.411-38.272-7.39-54.32-16.23l11.37-39.603
	c18.172,7.088,44.685,16.001,64.29,11.721c17.149-3.74,21.471-19.137,1.288-27.836c-17.048-7.655-75.714-15.658-75.714-64.722
	c0-20.326,15.235-48.262,53.086-56.524v-24.375h34.363v22.368c14.727,1.012,29.748,3.731,47.096,9.156
	c-1.736,7.579-9.234,40.472-9.234,40.472c-11.979-4.076-31.559-11.203-50.357-10.146c-23.227,1.306-24.891,18.268-9.232,26.099
	c32.121,14.525,78.643,26.878,78.643,70.2C331.844,329.101,305.762,348.167,274.885,352.508z"/>
</svg>
