<?xml version="1.0" encoding="utf-8"?>


<!-- The icon can be used freely in both personal and commercial projects with no attribution required, but always appreciated. 
You may NOT sub-license, resell, rent, redistribute or otherwise transfer the icon without express written permission from iconmonstr.com -->


<!DOCTYPE svg PUBLIC "-//W3C//DTD SVG 1.1//EN" "http://www.w3.org/Graphics/SVG/1.1/DTD/svg11.dtd">

<svg version="1.1" xmlns="http://www.w3.org/2000/svg" xmlns:xlink="http://www.w3.org/1999/xlink" x="0px" y="0px"

	 width="512px" height="512px" viewBox="0 0 512 512" enable-background="new 0 0 512 512" xml:space="preserve">

<path id="sharethis-circle-icon" d="M256.417,50c-113.771,0-206,92.229-206,206s92.229,206,206,206s206-92.229,206-206

	S370.188,50,256.417,50z M208.566,256.494c0,2.746-0.261,5.426-0.734,8.033l80.025,39.509c8.18-9.018,19.992-14.681,33.128-14.681

	c24.7,0,44.722,20.021,44.722,44.721c0,24.698-20.021,44.722-44.722,44.722s-44.721-20.023-44.721-44.722

	c0-0.163,0.011-0.322,0.013-0.485l-84.865-41.897c-7.598,5.958-17.163,9.521-27.566,9.521c-24.7,0-44.721-20.022-44.721-44.72

	c0-24.699,20.021-44.721,44.721-44.721c12.717,0,24.185,5.316,32.326,13.837l80.436-42.24c-0.217-1.787-0.343-3.601-0.343-5.445

	c0-24.699,20.021-44.721,44.721-44.721s44.722,20.022,44.722,44.721c0,24.698-20.021,44.72-44.722,44.72

	c-11.39,0-21.779-4.265-29.675-11.275l-82.786,43.476C208.545,255.395,208.566,255.942,208.566,256.494z"/>

</svg>

