<?xml version="1.0" encoding="utf-8"?>

<!-- License Agreement at http://iconmonstr.com/license/ -->

<!DOCTYPE svg PUBLIC "-//W3C//DTD SVG 1.1//EN" "http://www.w3.org/Graphics/SVG/1.1/DTD/svg11.dtd">
<svg version="1.1" xmlns="http://www.w3.org/2000/svg" xmlns:xlink="http://www.w3.org/1999/xlink" x="0px" y="0px"
	 width="512px" height="512px" viewBox="0 0 512 512" style="enable-background:new 0 0 512 512;" xml:space="preserve">
<path id="id-card-3-icon" d="M50,106v300h412V106H50z M274.63,336.122H114.014c0-22.018-1.77-34.15,21.244-39.457
	c22.529-5.198,44.767-9.843,34.076-29.529c-31.679-58.343-9.032-91.419,24.988-91.419c33.361,0,56.581,31.854,24.986,91.419
	c-10.378,19.566,11.053,24.216,34.077,29.529C276.398,301.972,274.63,314.104,274.63,336.122z M395.619,336.122h-71.132v-30h71.132
	V336.122z M395.619,272.322H287.087v-30h108.532V272.322z M395.619,208.522H287.087v-30h108.532V208.522z"/>
</svg>
