<?xml version="1.0" encoding="utf-8"?>


<!-- The icon can be used freely in both personal and commercial projects with no attribution required, but always appreciated. 
You may NOT sub-license, resell, rent, redistribute or otherwise transfer the icon without express written permission from iconmonstr.com -->


<!DOCTYPE svg PUBLIC "-//W3C//DTD SVG 1.1//EN" "http://www.w3.org/Graphics/SVG/1.1/DTD/svg11.dtd">

<svg version="1.1" xmlns="http://www.w3.org/2000/svg" xmlns:xlink="http://www.w3.org/1999/xlink" x="0px" y="0px"

	 width="512px" height="512px" viewBox="0 0 512 512" enable-background="new 0 0 512 512" xml:space="preserve">

<path id="gear-2-icon" d="M311.546,256c0,30.628-24.918,55.546-55.546,55.546c-30.629,0-55.548-24.918-55.548-55.546

	c0-30.629,24.919-55.547,55.548-55.547C286.628,200.453,311.546,225.371,311.546,256z M462,228.257v55.485l-29.963,10.655

	c-11.449,4.071-20.643,12.796-25.297,24.021c-0.002,0.005-0.004,0.009-0.006,0.014c-4.653,11.218-4.328,23.908,0.886,34.877

	l13.66,28.737l-39.234,39.234l-28.902-13.738c-10.884-5.174-23.451-5.491-34.578-0.863c-0.005,0.002-0.009,0.004-0.014,0.006

	c-11.308,4.701-20.113,13.987-24.216,25.525L283.741,462h-55.484l-10.663-29.984c-4.068-11.438-12.784-20.621-23.998-25.271

	c-0.004-0.002-0.009-0.004-0.014-0.006c-11.229-4.657-23.93-4.33-34.909,0.889l-28.721,13.652l-39.234-39.234l13.654-28.723

	c5.222-10.985,5.548-23.67,0.888-34.906c-0.002-0.004-0.003-0.009-0.005-0.014c-4.647-11.206-13.844-19.935-25.274-24L50,283.742

	v-55.485l29.982-10.662c11.438-4.067,20.622-12.784,25.271-23.998c0.002-0.004,0.004-0.009,0.006-0.013

	c4.656-11.229,4.33-23.931-0.889-34.91l-13.653-28.721l39.234-39.234l28.723,13.653c10.986,5.222,23.67,5.548,34.905,0.889

	c0.005-0.001,0.009-0.003,0.014-0.005c11.207-4.646,19.936-13.843,24.001-25.274L228.257,50h55.484l10.663,29.982

	c4.067,11.438,12.785,20.623,24,25.273c0.004,0.002,0.009,0.003,0.014,0.005c11.229,4.657,23.93,4.33,34.908-0.889l28.72-13.652

	l39.234,39.234l-13.653,28.724c-5.222,10.985-5.548,23.668-0.889,34.903c0.002,0.004,0.004,0.009,0.006,0.013

	c4.646,11.208,13.844,19.937,25.274,24.001L462,228.257z M351.546,256c0-52.685-42.861-95.547-95.546-95.547

	c-52.686,0-95.548,42.862-95.548,95.547s42.862,95.546,95.548,95.546C308.685,351.546,351.546,308.685,351.546,256z"/>

</svg>

