<?xml version="1.0" encoding="utf-8"?>

<!-- The icon can be used freely in both personal and commercial projects with no attribution required, but always appreciated. 
You may NOT sub-license, resell, rent, redistribute or otherwise transfer the icon without express written permission from iconmonstr.com -->

<!DOCTYPE svg PUBLIC "-//W3C//DTD SVG 1.1//EN" "http://www.w3.org/Graphics/SVG/1.1/DTD/svg11.dtd">
<svg version="1.1" xmlns="http://www.w3.org/2000/svg" xmlns:xlink="http://www.w3.org/1999/xlink" x="0px" y="0px"
	 width="512px" height="512px" viewBox="0 0 512 512" enable-background="new 0 0 512 512" xml:space="preserve">
<path id="server-6-icon" d="M462,305.646H156.785v76.498H462V305.646z M177.083,360.673l13.421-33.555h16.215l-13.422,33.555
	H177.083z M203.363,360.673l13.42-33.555h16.213l-13.42,33.555H203.363z M229.641,360.673l13.42-33.555h16.213l-13.422,33.555
	H229.641z M255.919,360.673l13.42-33.555h16.211l-13.418,33.555H255.919z M298.408,360.673h-16.212l13.422-33.555h16.212
	L298.408,360.673z M425.763,355.101c-6.186,0-11.205-5.02-11.205-11.207s5.02-11.205,11.205-11.205
	c6.189,0,11.209,5.018,11.209,11.205S431.952,355.101,425.763,355.101z M126.712,359.397C83.854,358.22,50,323.669,50,281.335
	c0-35.076,23.346-65.332,56.037-74.934c9.194-31.342,42.171-49.711,73.639-41.32c18.84-22.277,46.396-35.225,76.127-35.225
	c48.381,0,89.253,34.574,98.076,81.131c25.067,12.059,41.855,36.543,43.891,64.586h-33.938
	c-2.418-26.219-21.332-39.771-41.395-39.848c-1.104-49.895-34.422-71.986-66.635-71.986c-42.613,0-60.119,32.258-64.488,44.609
	c-17.373-25.059-64.527-6.141-54.755,27.4c-29.254-5.305-52.676,16.719-52.676,45.586c0,23.66,18.674,43.041,42.83,44.18V359.397z"
	/>
</svg>
