<?xml version="1.0" encoding="utf-8"?>

<!-- License Agreement at http://iconmonstr.com/license/ -->

<!DOCTYPE svg PUBLIC "-//W3C//DTD SVG 1.1//EN" "http://www.w3.org/Graphics/SVG/1.1/DTD/svg11.dtd">
<svg version="1.1" xmlns="http://www.w3.org/2000/svg" xmlns:xlink="http://www.w3.org/1999/xlink" x="0px" y="0px"
	 width="512px" height="512px" viewBox="0 0 512 512" enable-background="new 0 0 512 512" xml:space="preserve">
<path id="android-os-4-icon" d="M296.011,174.094c0.009,3.436-2.782,6.221-6.214,6.221c-3.434,0.003-6.228-2.781-6.228-6.225
	c0.013-3.411,2.789-6.227,6.229-6.238C293.213,167.861,296.014,170.676,296.011,174.094z M222.188,167.872
	c-3.432-0.001-6.209,2.812-6.21,6.231c0,3.435,2.787,6.214,6.205,6.223c3.446-0.002,6.239-2.791,6.239-6.223
	C228.415,170.685,225.631,167.869,222.188,167.872z M462,256c0,113.771-92.229,206-206,206S50,369.771,50,256S142.229,50,256,50
	S462,142.229,462,256z M182.325,207.227l147.379-0.016c0.004-25.496-14.744-47.66-37.327-59.354l11.506-21.01
	c0.615-1.099,0.21-2.498-0.902-3.117c-1.122-0.595-2.509-0.191-3.102,0.914l-11.622,21.231c-20.438-9.09-44.333-9.002-64.527-0.031
	l-11.634-21.175c-0.604-1.118-1.996-1.521-3.096-0.913c-1.119,0.603-1.527,2.003-0.907,3.099l11.511,20.995
	C196.986,159.516,182.313,181.727,182.325,207.227z M175.938,226.322c-0.003-9.094-7.392-16.48-16.494-16.475
	c-9.104-0.004-16.48,7.389-16.484,16.482l0.015,69.032c0,9.125,7.383,16.49,16.485,16.488c9.109,0,16.489-7.366,16.479-16.488
	V226.322z M329.721,319.916l-0.017-106.98l-147.379,0.025l0.024,106.979c-0.008,9.73,7.862,17.586,17.59,17.588l11.989,0.004v36.525
	c-0.002,9.094,7.391,16.486,16.475,16.486c9.107,0,16.487-7.398,16.489-16.498v-36.518l22.255-0.004v36.523
	c-0.002,9.088,7.394,16.494,16.479,16.48c9.106,0.005,16.481-7.396,16.479-16.496v-36.514l12.018-0.008
	C321.828,337.514,329.719,329.647,329.721,319.916z M369.04,295.339l-0.011-69.032c-0.002-9.104-7.381-16.483-16.485-16.48
	c-9.102-0.008-16.48,7.384-16.479,16.488l0.011,69.032c0,9.113,7.374,16.479,16.485,16.481
	C361.665,311.827,369.039,304.46,369.04,295.339z"/>
</svg>
