<?xml version="1.0" encoding="utf-8"?>
<!DOCTYPE svg PUBLIC "-//W3C//DTD SVG 1.1//EN" "http://www.w3.org/Graphics/SVG/1.1/DTD/svg11.dtd">
<svg version="1.1" xmlns="http://www.w3.org/2000/svg" xmlns:xlink="http://www.w3.org/1999/xlink" x="0px" y="0px"
	 width="512px" height="512px" viewBox="0 0 512 512" enable-background="new 0 0 512 512" xml:space="preserve">
<path id="password-4-icon" d="M422,207v98H90v-98H422 M462,167H50v178h412V167z M170.307,256.205l-4.955-14.141l-15.032,5.702
	v-16.154h-14.686v16.128l-14.617-5.691l-4.96,14.148l15.105,5.08l-9.639,12.768l12.259,8.969l9.101-13.393l9.61,13.373l12.064-8.961
	l-9.623-12.744L170.307,256.205z M245.498,256.205l-4.956-14.141l-15.032,5.702v-16.154h-14.686v16.128l-14.617-5.691l-4.96,14.148
	l15.105,5.08l-9.639,12.768l12.259,8.969l9.102-13.393l9.609,13.373l12.065-8.961l-9.624-12.744L245.498,256.205z M320.833,256.205
	l-4.956-14.141l-15.032,5.702v-16.154h-14.686v16.128l-14.617-5.691l-4.96,14.148l15.105,5.08l-9.639,12.768l12.259,8.969
	l9.102-13.393l9.609,13.373l12.064-8.961l-9.623-12.744L320.833,256.205z"/>
</svg>
