<?xml version="1.0" encoding="utf-8"?>
<!DOCTYPE svg PUBLIC "-//W3C//DTD SVG 1.1//EN" "http://www.w3.org/Graphics/SVG/1.1/DTD/svg11.dtd">
<svg version="1.1" xmlns="http://www.w3.org/2000/svg" xmlns:xlink="http://www.w3.org/1999/xlink" x="0px" y="0px"
	 width="512px" height="512px" viewBox="0 0 512 512" enable-background="new 0 0 512 512" xml:space="preserve">
<path id="safe-2-icon" d="M188,462h-78v-30h78V462z M402,432h-78v30h78V432z M397,90v282H115V90H397 M437,50H75v362h362V50L437,50z
	 M308.816,205.26l-11.171,4.624c0.581,1.152,1.12,2.329,1.61,3.534c0.408,1.008,0.778,2.025,1.115,3.052l11.174-4.625
	C310.766,209.584,309.853,207.387,308.816,205.26z M286.389,195.549c0.896,0.772,1.77,1.581,2.614,2.426s1.653,1.716,2.427,2.615
	l8.543-8.544c-1.576-1.781-3.261-3.463-5.039-5.041L286.389,195.549z M270.801,186.706c0.927,0.311,1.849,0.648,2.758,1.017
	c1.303,0.527,2.571,1.114,3.81,1.75l4.698-11.138c-2.121-1.051-4.312-1.979-6.568-2.773L270.801,186.706z M252.436,184.44
	c1.182-0.09,2.369-0.135,3.564-0.135s2.382,0.045,3.564,0.135v-12.085h-7.129V184.44z M230.281,178.162l4.625,11.171
	c1.151-0.583,2.329-1.121,3.534-1.61c1.007-0.409,2.024-0.78,3.051-1.115l-4.625-11.175
	C234.605,176.211,232.408,177.125,230.281,178.162z M229.874,213.814c-3.251,4.933-5.147,10.836-5.147,17.187
	c0,17.271,14.002,31.272,31.273,31.272s31.272-14.001,31.272-31.272c0-17.274-14.001-31.276-31.272-31.276
	c-6.744,0-12.984,2.142-18.092,5.772l11.457,11.458l-8.175,8.174L229.874,213.814z M212.027,192.046l8.543,8.544
	c0.773-0.897,1.582-1.77,2.427-2.615c0.844-0.845,1.716-1.653,2.614-2.426l-8.544-8.544
	C215.287,188.583,213.604,190.266,212.027,192.046z M200.584,211.479l11.143,4.699c0.312-0.928,0.648-1.849,1.018-2.76
	c0.527-1.301,1.114-2.57,1.75-3.81l-11.137-4.697C202.305,207.031,201.378,209.223,200.584,211.479z M209.461,234.543
	c-0.09-1.182-0.135-2.371-0.135-3.565s0.045-2.382,0.135-3.564h-12.086v7.129H209.461z M203.184,256.697l11.172-4.625
	c-0.583-1.152-1.123-2.33-1.611-3.536c-0.408-1.007-0.779-2.024-1.115-3.051l-11.174,4.626
	C201.234,252.372,202.146,254.569,203.184,256.697z M225.611,266.408c-0.898-0.773-1.771-1.581-2.614-2.428
	c-0.845-0.844-1.653-1.717-2.427-2.613l-9.552,9.553l5.04,5.039L225.611,266.408z M241.199,275.293
	c-0.928-0.311-1.848-0.646-2.76-1.017c-1.301-0.526-2.57-1.114-3.809-1.751l-4.697,11.139c2.12,1.052,4.312,1.979,6.567,2.773
	L241.199,275.293z M259.564,277.561c-1.183,0.088-2.369,0.134-3.564,0.134s-2.383-0.046-3.564-0.134v12.086h7.129V277.561z
	 M281.717,283.838l-4.623-11.172c-1.152,0.583-2.33,1.121-3.535,1.61c-1.008,0.409-2.023,0.78-3.051,1.115l4.623,11.175
	C277.394,285.787,279.592,284.874,281.717,283.838z M299.973,269.91l-8.543-8.543c-0.773,0.896-1.582,1.77-2.427,2.613
	c-0.845,0.847-1.718,1.654-2.614,2.428l8.545,8.544C296.712,273.375,298.396,271.689,299.973,269.91z M311.414,250.478l-11.143-4.7
	c-0.309,0.928-0.646,1.848-1.016,2.76c-0.527,1.301-1.115,2.57-1.753,3.81l11.14,4.697
	C309.694,254.925,310.621,252.732,311.414,250.478z M314.623,227.414h-12.084c0.088,1.182,0.135,2.37,0.135,3.564
	s-0.047,2.383-0.135,3.565h12.084V227.414z M256,153.241c43.018,0,77.76,34.732,77.76,77.76c0,43.015-34.732,77.759-77.76,77.759
	c-43.014,0-77.76-34.73-77.76-77.759C178.24,187.987,212.971,153.241,256,153.241 M256,123.241
	c-59.555,0-107.76,48.196-107.76,107.76c0,59.554,48.196,107.759,107.76,107.759c59.553,0,107.76-48.195,107.76-107.759
	C363.76,171.445,315.564,123.241,256,123.241L256,123.241z"/>
</svg>
